<svg width="24" height="17" viewBox="0 0 24 17" fill="none" xmlns="http://www.w3.org/2000/svg">
<g id="Group 31">
<path id="Vector" d="M22.7333 7.5625H1.26667C0.567106 7.5625 0 8.12961 0 8.82917V8.9625C0 9.66206 0.567106 10.2292 1.26667 10.2292H22.7333C23.4329 10.2292 24 9.66206 24 8.9625V8.82917C24 8.12961 23.4329 7.5625 22.7333 7.5625Z" fill="white"/>
<path id="Vector_2" d="M22.7333 14.229H1.26667C0.567106 14.229 0 14.7961 0 15.4957V15.629C0 16.3286 0.567106 16.8957 1.26667 16.8957H22.7333C23.4329 16.8957 24 16.3286 24 15.629V15.4957C24 14.7961 23.4329 14.229 22.7333 14.229Z" fill="white"/>
<path id="Vector_3" d="M22.7333 0.895752H1.26667C0.567106 0.895752 0 1.46286 0 2.16242V2.29575C0 2.99531 0.567106 3.56242 1.26667 3.56242H22.7333C23.4329 3.56242 24 2.99531 24 2.29575V2.16242C24 1.46286 23.4329 0.895752 22.7333 0.895752Z" fill="white"/>
</g>
</svg>
