<svg width="183" height="44" viewBox="0 0 183 44" fill="none" xmlns="http://www.w3.org/2000/svg" class="header-logo">
<g id="Group 70">
<path id="Vector (Stroke)" fill-rule="evenodd" clip-rule="evenodd" d="M16.9998 1.5694V5.43184L18.0559 6.2929L19.1281 5.42607V1.5694H16.9998ZM15.9384 1.46157C15.9384 0.935145 16.3607 0.5 16.8913 0.5H19.2366C19.7617 0.5 20.1895 0.929578 20.1895 1.46157V5.48092C20.1895 5.77248 20.0575 6.04937 19.8301 6.23138L19.6851 6.3474H19.6845L18.6511 7.18281L18.6505 7.18329C18.5879 7.23371 18.5205 7.27514 18.45 7.30751C18.5397 7.40327 18.5947 7.53239 18.5947 7.67445V10.6435H31.0321C31.7309 10.6435 32.2944 11.2157 32.2944 11.9178V14.1726C32.2944 14.8747 31.7309 15.4469 31.0321 15.4469H18.5947V16.6662H23.5844C24.3467 16.6662 24.9616 17.2905 24.9616 18.0567V20.0791C24.9616 20.8453 24.3467 21.4696 23.5844 21.4696H18.5947V22.7945H34.5458C35.3521 22.7945 36.0025 23.4548 36.0025 24.2654V26.1271C36.0025 26.9377 35.352 27.598 34.5458 27.598H18.5947V29.0645H37.6081C38.3785 29.0645 39 29.6954 39 30.4698V32.4626C39 33.237 38.3785 33.8679 37.6081 33.8679H18.5947V35.2393H24.2638C25.0354 35.2393 25.6578 35.8712 25.6578 36.6468V38.6353C25.6578 39.4109 25.0354 40.0428 24.2638 40.0428H18.5947V42.9653C18.5947 43.2606 18.3571 43.5 18.064 43.5C17.7709 43.5 17.5333 43.2606 17.5333 42.9653V40.0428H1.39399C0.622406 40.0428 0 39.4109 0 38.6353V36.6468C0 35.8712 0.622407 35.2393 1.39399 35.2393H17.5333V33.8679H14.7697C13.9992 33.8679 13.3778 33.237 13.3778 32.4626V30.4698C13.3778 29.6954 13.9992 29.0645 14.7697 29.0645H17.5333V27.598H8.11001C7.30379 27.598 6.65331 26.9377 6.65331 26.1271V24.2654C6.65331 23.4548 7.30379 22.7945 8.11001 22.7945H17.5333V21.4696H1.62176C0.859411 21.4696 0.24449 20.8453 0.24449 20.0791V18.0567C0.24449 17.2905 0.859408 16.6662 1.62176 16.6662H17.5333V15.4469H14.7968C14.098 15.4469 13.5345 14.8747 13.5345 14.1726V11.9178C13.5345 11.2157 14.098 10.6435 14.7968 10.6435H17.5333V7.67445C17.5333 7.53522 17.5861 7.40841 17.6727 7.31327C17.5971 7.27973 17.5248 7.23568 17.4579 7.18106L16.2915 6.23005C16.0695 6.04863 15.9384 5.77375 15.9384 5.48304V1.46157ZM17.5333 11.7129H14.7968C14.6876 11.7129 14.5959 11.8029 14.5959 11.9178V14.1726C14.5959 14.2875 14.6876 14.3775 14.7968 14.3775H17.5333V11.7129ZM18.5947 14.3775H31.0321C31.1413 14.3775 31.233 14.2875 31.233 14.1726V11.9178C31.233 11.8029 31.1413 11.7129 31.0321 11.7129H18.5947V14.3775ZM17.5333 17.7356H1.62176C1.44901 17.7356 1.30589 17.8776 1.30589 18.0567V20.0791C1.30589 20.2582 1.44901 20.4002 1.62176 20.4002H17.5333V17.7356ZM18.5947 20.4002H23.5844C23.7571 20.4002 23.9002 20.2582 23.9002 20.0791V18.0567C23.9002 17.8776 23.7571 17.7356 23.5844 17.7356H18.5947V20.4002ZM17.5333 23.8639H8.11001C7.8934 23.8639 7.71471 24.0419 7.71471 24.2654V26.1271C7.71471 26.3506 7.89339 26.5286 8.11001 26.5286H17.5333V23.8639ZM18.5947 26.5286H34.5458C34.7625 26.5286 34.9411 26.3506 34.9411 26.1271V24.2654C34.9411 24.0419 34.7625 23.8639 34.5458 23.8639H18.5947V26.5286ZM17.5333 30.1339H14.7697C14.5888 30.1339 14.4392 30.2825 14.4392 30.4698V32.4626C14.4392 32.6498 14.5888 32.7985 14.7697 32.7985H17.5333V30.1339ZM18.5947 32.7985H37.6081C37.7889 32.7985 37.9386 32.6498 37.9386 32.4626V30.4698C37.9386 30.2825 37.7889 30.1339 37.6081 30.1339H18.5947V32.7985ZM17.5333 36.3087H1.39399C1.21201 36.3087 1.0614 36.4583 1.0614 36.6468V38.6353C1.0614 38.8237 1.21201 38.9734 1.39399 38.9734H17.5333V36.3087ZM18.5947 38.9734H24.2638C24.4458 38.9734 24.5964 38.8237 24.5964 38.6353V36.6468C24.5964 36.4583 24.4458 36.3087 24.2638 36.3087H18.5947V38.9734Z" fill="white"/>
<g id="Layer 4">
<g id="Group">
<path id="Vector" d="M58.1387 24.3029C58.1387 25.4165 57.7447 26.2724 56.9581 26.8662C56.1701 27.4616 55.0432 27.7593 53.5746 27.7593C52.1059 27.7593 50.9149 27.5295 50.0209 27.0683V24.9738C51.3224 25.5923 52.5328 25.9023 53.6552 25.9023C55.1029 25.9023 55.8268 25.4519 55.8268 24.5512C55.8268 24.2628 55.7462 24.0222 55.5865 23.8294C55.4268 23.6366 55.1626 23.4376 54.7955 23.231C54.4283 23.0243 53.9179 22.7914 53.2641 22.5292C51.9895 22.0202 51.1269 21.5113 50.6761 21.0023C50.2254 20.4933 50 19.8332 50 19.0219C50 18.0456 50.3821 17.2868 51.1463 16.747C51.9104 16.2072 52.9492 15.9373 54.2641 15.9373C55.579 15.9373 56.7969 16.2087 57.9581 16.7516L57.1969 18.5777C56.0029 18.0688 54.9984 17.8143 54.1835 17.8143C52.9418 17.8143 52.3224 18.1783 52.3224 18.9078C52.3224 19.2656 52.4835 19.5679 52.8074 19.8162C53.1313 20.0645 53.8373 20.4039 54.9238 20.8373C55.8372 21.2028 56.5014 21.5359 56.9163 21.8382C57.3298 22.1405 57.6372 22.4906 57.8372 22.8855C58.0372 23.2803 58.1372 23.7538 58.1372 24.3044L58.1387 24.3029Z" fill="white"/>
<path id="Vector_2" d="M64.9894 25.799C65.5625 25.799 66.1371 25.7065 66.7117 25.5198V27.346C66.452 27.4632 66.1162 27.5604 65.7058 27.6406C65.2953 27.7192 64.87 27.7593 64.4297 27.7593C62.2014 27.7593 61.0864 26.5486 61.0864 24.1271V17.9778H59.5745V16.9044L61.1954 16.0175L61.9969 13.6038H63.4476V16.1424H66.6013V17.9794H63.4476V24.087C63.4476 24.6716 63.5894 25.1034 63.873 25.3826C64.1565 25.6617 64.5282 25.8006 64.9894 25.8006V25.799Z" fill="white"/>
<path id="Vector_3" d="M73.943 27.7594C72.2206 27.7594 70.8743 27.2412 69.9042 26.2063C68.9326 25.1714 68.4475 23.7463 68.4475 21.9294C68.4475 20.1125 68.8982 18.601 69.7982 17.5337C70.6997 16.468 71.937 15.9343 73.5116 15.9343C74.9728 15.9343 76.128 16.3924 76.9757 17.307C77.8235 18.2216 78.2474 19.4802 78.2474 21.0826V22.3936H70.8699C70.9027 23.501 71.1937 24.3524 71.74 24.9477C72.2878 25.5431 73.0579 25.8408 74.0519 25.8408C74.7056 25.8408 75.3146 25.7775 75.8787 25.6495C76.4429 25.5215 77.0489 25.3102 77.6951 25.0156V26.9867C77.1205 27.269 76.5399 27.4679 75.9534 27.5851C75.3653 27.7023 74.6952 27.761 73.9415 27.761L73.943 27.7594ZM73.5131 17.7728C72.7654 17.7728 72.1669 18.0165 71.7161 18.5054C71.2654 18.9943 70.9967 19.7053 70.9102 20.6415H75.9355C75.922 19.6992 75.7011 18.9851 75.2743 18.5008C74.8474 18.0165 74.2594 17.7728 73.5131 17.7728Z" fill="white"/>
<path id="Vector_4" d="M88.0308 27.5527L87.5607 25.9641H87.4801C86.9458 26.6581 86.4084 27.1316 85.8682 27.383C85.3279 27.6344 84.6338 27.7593 83.7861 27.7593C82.698 27.7593 81.8488 27.457 81.2384 26.8509C80.6279 26.2463 80.322 25.3888 80.322 24.2814C80.322 23.1046 80.7458 22.2177 81.5936 21.6193C82.4413 21.0209 83.7324 20.6939 85.4682 20.6399L87.3801 20.5782V19.969C87.3801 19.2395 87.2144 18.695 86.8846 18.3341C86.5547 17.9732 86.0413 17.7928 85.3488 17.7928C84.7816 17.7928 84.2383 17.8791 83.7174 18.0503C83.1965 18.2231 82.6966 18.4251 82.216 18.6596L81.4548 16.926C82.0548 16.6021 82.713 16.3568 83.4264 16.1887C84.1398 16.0206 84.8144 15.9358 85.4488 15.9358C86.8562 15.9358 87.9189 16.252 88.6368 16.8843C89.3547 17.5167 89.7129 18.5115 89.7129 19.8657V27.5527H88.0308ZM84.5279 25.9024C85.3816 25.9024 86.0682 25.6571 86.5846 25.1651C87.101 24.6731 87.3607 23.9837 87.3607 23.0969V22.1067L85.9398 22.1684C84.8323 22.21 84.0264 22.3997 83.5219 22.7406C83.0174 23.0814 82.7667 23.6012 82.7667 24.303C82.7667 24.8119 82.913 25.2052 83.207 25.4844C83.501 25.7636 83.9413 25.9024 84.5279 25.9024Z" fill="white"/>
<path id="Vector_5" d="M96.9143 27.7593C95.5337 27.7593 94.4546 27.2442 93.6815 26.2123C92.9069 25.1805 92.5203 23.7323 92.5203 21.8691C92.5203 20.006 92.9129 18.5423 93.6964 17.4997C94.48 16.4571 95.5665 15.9373 96.9546 15.9373C98.3426 15.9373 99.5172 16.491 100.278 17.5984H100.398C100.284 16.7794 100.228 16.1332 100.228 15.6581V11.5H102.59V27.5542H100.749L100.338 26.0581H100.228C99.474 27.1933 98.3695 27.7608 96.9143 27.7608V27.7593ZM97.5456 25.799C98.5128 25.799 99.2172 25.5183 99.6575 24.9584C100.098 24.3986 100.325 23.4886 100.338 22.23V21.8892C100.338 20.4517 100.111 19.4307 99.6575 18.8246C99.2038 18.22 98.4934 17.9161 97.5247 17.9161C96.6979 17.9161 96.0591 18.2616 95.6128 18.9526C95.1651 19.6435 94.9427 20.6291 94.9427 21.9092C94.9427 23.1894 95.1591 24.1394 95.5934 24.8026C96.0277 25.4658 96.6785 25.799 97.5456 25.799Z" fill="white"/>
<path id="Vector_6" d="M104.456 16.1424H107.019L109.271 22.611C109.611 23.5333 109.838 24.4001 109.951 25.2113H110.032C110.092 24.8335 110.202 24.3739 110.362 23.834C110.522 23.2942 111.369 20.7309 112.905 16.1424H115.448L110.714 29.0703C109.853 31.4424 108.419 32.63 106.41 32.63C105.889 32.63 105.381 32.5714 104.889 32.4542V30.5355C105.243 30.6188 105.646 30.6589 106.101 30.6589C107.235 30.6589 108.032 29.9818 108.493 28.6261L108.904 27.5526L104.459 16.1409L104.456 16.1424Z" fill="white"/>
<path id="Vector_7" d="M124.751 24.3029C124.751 25.4165 124.357 26.2724 123.571 26.8662C122.783 27.4616 121.656 27.7593 120.187 27.7593C118.718 27.7593 117.527 27.5295 116.633 27.0683V24.9738C117.935 25.5923 119.145 25.9023 120.268 25.9023C121.715 25.9023 122.439 25.4519 122.439 24.5512C122.439 24.2628 122.359 24.0222 122.199 23.8294C122.039 23.6366 121.775 23.4376 121.408 23.231C121.041 23.0243 120.53 22.7914 119.877 22.5292C118.602 22.0202 117.739 21.5113 117.289 21.0023C116.838 20.4933 116.613 19.8332 116.613 19.0219C116.613 18.0456 116.995 17.2868 117.759 16.747C118.523 16.2072 119.562 15.9373 120.877 15.9373C122.192 15.9373 123.409 16.2087 124.571 16.7516L123.809 18.5777C122.615 18.0688 121.611 17.8143 120.796 17.8143C119.554 17.8143 118.935 18.1783 118.935 18.9078C118.935 19.2656 119.096 19.5679 119.42 19.8162C119.744 20.0645 120.45 20.4039 121.538 20.8373C122.451 21.2028 123.115 21.5359 123.53 21.8382C123.944 22.1405 124.251 22.4906 124.451 22.8855C124.651 23.2803 124.751 23.7538 124.751 24.3044V24.3029Z" fill="white"/>
<path id="Vector_8" d="M131.942 27.7593C130.268 27.7593 128.994 27.255 128.123 26.2478C127.253 25.2407 126.817 23.794 126.817 21.9093C126.817 20.0245 127.272 18.5146 128.184 17.4828C129.094 16.4509 130.411 15.9358 132.133 15.9358C133.3 15.9358 134.353 16.1594 135.287 16.6067L134.576 18.5562C133.582 18.1568 132.762 17.9578 132.114 17.9578C130.199 17.9578 129.241 19.2688 129.241 21.8892C129.241 23.1678 129.48 24.1302 129.956 24.7734C130.433 25.4165 131.132 25.7373 132.053 25.7373C133.1 25.7373 134.091 25.469 135.026 24.9322V27.0468C134.605 27.3013 134.157 27.4833 133.679 27.5928C133.202 27.7023 132.623 27.7578 131.942 27.7578V27.7593Z" fill="white"/>
<path id="Vector_9" d="M142.647 27.7594C140.924 27.7594 139.578 27.2412 138.608 26.2063C137.636 25.1714 137.151 23.7463 137.151 21.9294C137.151 20.1125 137.602 18.601 138.502 17.5337C139.403 16.468 140.641 15.9343 142.215 15.9343C143.676 15.9343 144.832 16.3924 145.679 17.307C146.527 18.2216 146.951 19.4802 146.951 21.0826V22.3936H139.573C139.606 23.501 139.897 24.3524 140.444 24.9477C140.991 25.5431 141.761 25.8408 142.755 25.8408C143.409 25.8408 144.018 25.7775 144.582 25.6495C145.146 25.5215 145.751 25.3102 146.399 25.0156V26.9867C145.824 27.269 145.243 27.4679 144.657 27.5851C144.07 27.7023 143.399 27.761 142.645 27.761L142.647 27.7594ZM142.217 17.7728C141.469 17.7728 140.87 18.0165 140.42 18.5054C139.969 18.9943 139.7 19.7053 139.614 20.6415H144.639C144.626 19.6992 144.405 18.9851 143.978 18.5008C143.551 18.0165 142.963 17.7728 142.217 17.7728Z" fill="white"/>
<path id="Vector_10" d="M159.548 27.5527H157.185V20.5367C157.185 19.656 157.013 18.9989 156.67 18.5656C156.327 18.1322 155.781 17.9162 155.033 17.9162C154.039 17.9162 153.311 18.2185 152.851 18.8247C152.39 19.4293 152.16 20.4441 152.16 21.8677V27.5527H149.808V16.141H151.649L151.979 17.6371H152.099C152.433 17.0942 152.906 16.6746 153.52 16.3785C154.133 16.0824 154.814 15.9343 155.561 15.9343C158.216 15.9343 159.545 17.3271 159.545 20.1125V27.5512L159.548 27.5527Z" fill="white"/>
<path id="Vector_11" d="M167.84 27.7594C166.118 27.7594 164.772 27.2412 163.801 26.2063C162.83 25.1714 162.345 23.7463 162.345 21.9294C162.345 20.1125 162.796 18.601 163.696 17.5337C164.597 16.468 165.834 15.9343 167.409 15.9343C168.87 15.9343 170.025 16.3924 170.873 17.307C171.721 18.2216 172.145 19.4802 172.145 21.0826V22.3936H164.767C164.8 23.501 165.091 24.3524 165.637 24.9477C166.185 25.5431 166.955 25.8408 167.949 25.8408C168.603 25.8408 169.212 25.7775 169.776 25.6495C170.34 25.5215 170.945 25.3102 171.592 25.0156V26.9867C171.018 27.269 170.437 27.4679 169.851 27.5851C169.264 27.7023 168.592 27.761 167.839 27.761L167.84 27.7594ZM167.41 17.7728C166.663 17.7728 166.064 18.0165 165.613 18.5054C165.163 18.9943 164.894 19.7053 164.807 20.6415H169.833C169.819 19.6992 169.598 18.9851 169.172 18.5008C168.745 18.0165 168.157 17.7728 167.41 17.7728Z" fill="white"/>
<path id="Vector_12" d="M182.44 24.3029C182.44 25.4165 182.046 26.2724 181.259 26.8662C180.471 27.4616 179.345 27.7593 177.876 27.7593C176.407 27.7593 175.216 27.5295 174.322 27.0683V24.9738C175.624 25.5923 176.834 25.9023 177.957 25.9023C179.404 25.9023 180.128 25.4519 180.128 24.5512C180.128 24.2628 180.048 24.0222 179.888 23.8294C179.728 23.6366 179.464 23.4376 179.097 23.231C178.73 23.0243 178.219 22.7914 177.565 22.5292C176.291 22.0202 175.428 21.5113 174.977 21.0023C174.527 20.4933 174.301 19.8332 174.301 19.0219C174.301 18.0456 174.683 17.2868 175.448 16.747C176.212 16.2072 177.251 15.9373 178.565 15.9373C179.88 15.9373 181.098 16.2087 182.259 16.7516L181.498 18.5777C180.304 18.0688 179.3 17.8143 178.485 17.8143C177.243 17.8143 176.624 18.1783 176.624 18.9078C176.624 19.2656 176.785 19.5679 177.109 19.8162C177.433 20.0645 178.139 20.4039 179.227 20.8373C180.14 21.2028 180.804 21.5359 181.219 21.8382C181.633 22.1405 181.94 22.4906 182.14 22.8855C182.34 23.2803 182.44 23.7538 182.44 24.3044V24.3029Z" fill="white"/>
</g>
</g>
</g>
</svg>
